#!OML:ASF F:\VICON\USERDATA\Patient Classification 1\PLAYGROUND\JustinFriday\JustinFriday.ASF
:FULLY-SPECIFIED
:DEGREES
728
root 14.2539 29.6343 50.3178 -172.678 -5.31641 -176.033
lowerback 39.8045 0.585889 2.68144
upperback 4.21558 0.278054 0.983205
thorax -14.737 -0.727822 -0.266012
lowerneck 11.1097 -3.00121 -8.98856
upperneck -19.5356 -4.38366 10.58
head -7.33673 -2.74687 5.45333
rclavicle 6.75868e-015 1.2921e-014
rhumerus 90.3874 -1.92244 -80.1477
rradius 82.4531
rwrist 17.7698
rhand -7.31676 -19.7912
rfingers 7.12502
rthumb 18.5662 -48.9252
lclavicle 6.75868e-015 1.2921e-014
lhumerus 91.4215 6.27886 75.3325
lradius 73.2922
lwrist -20.9549
lhand 5.06454 -2.37025
lfingers 7.12502
lthumb 30.4315 25.138
rfemur -51.8929 -3.40347 30.4981
rtibia 45.0639
rfoot -35.0069 -18.3624
rtoes 8.60805
lfemur -50.8184 6.06124 -19.0637
ltibia 42.0014
lfoot -30.8077 -8.27426
ltoes 2.1882
729
root 14.2338 29.6287 50.321 -172.372 -4.63544 -176.04
lowerback 39.8871 0.981903 2.20162
upperback 4.12632 0.598609 1.04414
thorax -14.8783 -0.561083 -0.0930275
lowerneck 11.445 -2.9925 -9.21196
upperneck -19.8083 -4.40386 10.7438
head -7.473 -2.76347 5.57351
rclavicle 5.56597e-015 1.89839e-014
rhumerus 90.7357 -1.87117 -80.1905
rradius 82.4955
rwrist 17.6387
rhand -7.30953 -19.7005
rfingers 7.12502
rthumb 18.5731 -48.8338
lclavicle 5.56597e-015 1.89839e-014
lhumerus 91.6658 6.33872 75.5244
lradius 73.5657
lwrist -21.0179
lhand 5.08783 -2.39127
lfingers 7.12502
lthumb 30.4537 25.1129
rfemur -52.1909 -3.08575 30.5308
rtibia 45.0716
rfoot -34.9877 -17.9133
rtoes 8.62553
lfemur -50.9661 6.42067 -19.1199
ltibia 41.8311
lfoot -31.0732 -7.82933
ltoes 1.52279
730
root 14.1857 29.6325 50.3273 -172.295 -5.5449 -176.375
lowerback 40.059 0.372002 2.80274
upperback 4.14314 0.0681675 0.934985
thorax -14.9148 -0.82446 -0.283156
lowerneck 11.7149 -2.87073 -9.17821
upperneck -20.2378 -4.28977 10.5649
head -7.68272 -2.70523 5.5313
rclavicle -1.13307e-014 -1.88845e-015
rhumerus 91.2735 -1.65597 -80.5877
rradius 82.6626
rwrist 18.0356
rhand -6.88246 -19.5493
rfingers 7.12502
rthumb 18.9839 -48.6429
lclavicle -1.13307e-014 -1.88845e-015
lhumerus 91.9896 6.39832 75.6771
lradius 73.8408
lwrist -21.0949
lhand 5.25439 -2.3323
lfingers 7.12502
lthumb 30.6126 25.1423
rfemur -52.3864 -4.20321 30.1605
rtibia 45.1082
rfoot -35.1624 -17.7055
rtoes 8.89244
lfemur -50.9071 5.21876 -19.4773
ltibia 41.576
lfoot -31.2058 -7.47197
ltoes 1.03855
731
root 14.1543 29.6336 50.3316 -172.09 -5.61668 -176.614
lowerback 40.0486 0.289157 2.81296
upperback 4.18206 -0.0528744 0.852045
thorax -14.8675 -0.879408 -0.324445
lowerneck 11.9416 -2.73557 -9.07165
upperneck -20.6748 -4.14896 10.3605
head -7.89361 -2.6376 5.46456
rclavicle -6.16232e-015 -7.45443e-015
rhumerus 91.7891 -1.4079 -81.0555
rradius 82.8379
rwrist 18.6326
rhand -6.63454 -19.2194
rfingers 7.12502
rthumb 19.2223 -48.2894
lclavicle -6.16232e-015 -7.45443e-015
lhumerus 92.3392 6.39704 75.7967
lradius 74.0723
lwrist -21.1665
lhand 5.62858 -2.18433
lfingers 7.12502
lthumb 30.9693 25.223
rfemur -52.6346 -4.45491 29.8755
rtibia 45.1063
rfoot -35.1579 -17.6417
rtoes 9.15154
lfemur -50.9852 4.70167 -19.6668
ltibia 41.3721
lfoot -31.3504 -7.01026
ltoes 0.643618
732
root 14.1292 29.6341 50.3348 -171.99 -5.3953 -176.643
lowerback 40.2987 0.41479 2.66356
upperback 4.15324 0.0448532 0.901288
thorax -14.9894 -0.835177 -0.232086
lowerneck 12.3217 -2.71037 -9.12188
upperneck -21.0886 -4.15864 10.3445
head -8.09936 -2.64718 5.50427
rclavicle 1.78906e-015 -1.98785e-015
rhumerus 92.1976 -1.15013 -81.3703
rradius 82.9244
rwrist 19.2989
rhand -6.21584 -19.066
rfingers 7.12502
rthumb 19.6249 -48.0954
lclavicle 1.78906e-015 -1.98785e-015
lhumerus 92.5987 6.34572 76.055
lradius 74.3007
lwrist -21.3031
lhand 6.01692 -2.14938
lfingers 7.12502
lthumb 31.3394 25.1868
rfemur -52.6955 -4.35504 29.7692
rtibia 45.0795
rfoot -35.1148 -17.6073
rtoes 9.1484
lfemur -50.9903 4.54335 -19.634
ltibia 41.2254
lfoot -31.5552 -6.55264
ltoes 0.257532
733
root 14.1033 29.6291 50.3374 -171.889 -5.17068 -176.477
lowerback 40.5798 0.500953 2.69677
upperback 4.08768 0.183613 0.972817
thorax -15.1617 -0.781571 -0.230051
lowerneck 12.5734 -2.74072 -9.1998
upperneck -21.296 -4.2218 10.4061
head -8.20409 -2.68236 5.5642
rclavicle 1.2424e-014 -6.26172e-015
rhumerus 92.5547 -0.909805 -81.6753
rradius 83.0112
rwrist 19.7117
rhand -5.81915 -18.9924
rfingers 7.12502
rthumb 20.0062 -47.9825
lclavicle 1.2424e-014 -6.26172e-015
lhumerus 92.8002 6.14167 76.4238
lradius 74.6633
lwrist -21.4955
lhand 6.36751 -2.0947
lfingers 7.12502
lthumb 31.6734 25.1762
rfemur -52.783 -4.2647 29.8942
rtibia 45.0286
rfoot -35.181 -17.3837
rtoes 8.79418
lfemur -51.0311 4.36853 -19.3628
ltibia 41.1711
lfoot -31.8812 -5.94885
ltoes -0.397975
734
root 14.0813 29.6173 50.3375 -171.598 -4.52147 -176.271
lowerback 40.4757 0.807175 2.51145
upperback 4.0518 0.503699 1.01161
thorax -15.1664 -0.630639 -0.240543
lowerneck 12.8428 -2.70863 -9.36956
upperneck -21.4385 -4.20206 10.5279
head -8.29568 -2.67435 5.65074
rclavicle 4.67144e-015 -1.17283e-014
rhumerus 92.8838 -0.588742 -82.1221
rradius 83.2119
rwrist 19.6129
rhand -5.76887 -18.6284
rfingers 7.12502
rthumb 20.0545 -47.6134
lclavicle 4.67144e-015 -1.17283e-014
lhumerus 92.9841 5.72743 76.9462
lradius 75.1551
lwrist -21.7691
lhand 6.88183 -2.03339
lfingers 7.12502
lthumb 32.1632 25.1397
rfemur -53.1023 -3.88392 30.1192
rtibia 44.9884
rfoot -35.2109 -16.8414
rtoes 8.43172
lfemur -51.2506 4.40277 -18.9915
ltibia 41.1755
lfoot -32.1839 -5.22838
ltoes -0.998961
735
root 14.0514 29.6131 50.3332 -171.393 -4.43722 -176.271
lowerback 40.4169 0.803813 2.55423
upperback 4.0291 0.530811 1.03836
thorax -15.1718 -0.617468 -0.24716
lowerneck 13.248 -2.66282 -9.51818
upperneck -21.6957 -4.20611 10.4746
head -8.45524 -2.66192 5.68686
rclavicle -9.74045e-015 8.34896e-015
rhumerus 93.2204 -0.123896 -82.6039
rradius 83.5645
rwrist 19.2748
rhand -5.76307 -18.3099
rfingers 7.12502
rthumb 20.0601 -47.2943
lclavicle -9.74045e-015 8.34896e-015
lhumerus 93.1521 5.30639 77.5713
lradius 75.6271
lwrist -22.2236
lhand 7.37195 -2.07902
lfingers 7.12502
lthumb 32.6297 24.9986
rfemur -53.3415 -4.01818 30.123
rtibia 45.014
rfoot -35.2677 -16.467
rtoes 8.89028
lfemur -51.3591 4.16139 -18.9635
ltibia 41.1202
lfoot -32.3028 -4.96514
ltoes -0.921733
736
root 14.0209 29.6112 50.3289 -171.05 -4.52475 -176.215
lowerback 40.2766 0.692048 2.73928
upperback 3.96074 0.503207 1.07618
thorax -15.2012 -0.628046 -0.292803
lowerneck 13.451 -2.57213 -9.5049
upperneck -21.873 -4.1461 10.22
head -8.56896 -2.60885 5.60834
rclavicle 1.44119e-015 -1.07841e-014
rhumerus 93.4618 0.16479 -82.8794
rradius 83.8704
rwrist 19.1925
rhand -5.63334 -18.2977
rfingers 7.12502
rthumb 20.1848 -47.269
lclavicle 1.44119e-015 -1.07841e-014
lhumerus 93.2464 4.89523 78.1493
lradius 76.1588
lwrist -22.7454
lhand 7.83374 -2.05836
lfingers 7.12502
lthumb 33.0689 24.9273
rfemur -53.7742 -4.31028 30.2533
rtibia 45.0779
rfoot -35.3352 -16.1109
rtoes 9.4303
lfemur -51.681 3.87748 -18.9153
ltibia 41.0441
lfoot -32.31 -4.82032
ltoes -0.577925
737
root 13.9898 29.6146 50.3222 -170.886 -4.64252 -176.268
lowerback 40.4163 0.583314 2.85828
upperback 3.88727 0.439327 1.10347
thorax -15.3369 -0.659432 -0.294147
lowerneck 13.4891 -2.42628 -9.62657
upperneck -21.8742 -3.98889 10.1332
head -8.5947 -2.5132 5.58598
rclavicle 9.74045e-015 -3.8266e-015
rhumerus 93.6965 0.468264 -83.206
rradius 84.2358
rwrist 19.4215
rhand -5.08785 -18.3588
rfingers 7.12502
rthumb 20.709 -47.2739
lclavicle 9.74045e-015 -3.8266e-015
lhumerus 93.2359 4.40206 78.839
lradius 76.8605
lwrist -23.2192
lhand 8.65094 -1.91379
lfingers 7.12502
lthumb 33.8457 24.9041
rfemur -53.9956 -4.68386 30.2563
rtibia 45.134
rfoot -35.4069 -15.8951
rtoes 8.85497
lfemur -51.7532 3.42025 -18.8892
ltibia 40.9853
lfoot -32.4221 -4.65367
ltoes 0.160075
738
root 13.9597 29.6163 50.3107 -170.77 -4.49487 -176.326
lowerback 40.6985 0.620783 2.81003
upperback 3.78125 0.48694 1.11743
thorax -15.5629 -0.637013 -0.272324
lowerneck 13.6116 -2.38861 -9.88177
upperneck -21.8294 -3.96074 10.2897
head -8.5947 -2.49308 5.68252
rclavicle 4.02539e-015 2.73329e-015
rhumerus 93.8431 0.705207 -83.4946
rradius 84.6535
rwrist 19.3742
rhand -4.59185 -18.3559
rfingers 7.12502
rthumb 21.1855 -47.2183
lclavicle 4.02539e-015 2.73329e-015
lhumerus 93.2008 3.9195 79.5216
lradius 77.5489
lwrist -23.5034
lhand 9.47509 -1.79792
lfingers 7.12502
lthumb 34.6283 24.8441
rfemur -54.1277 -4.82244 30.2198
rtibia 45.1998
rfoot -35.4302 -15.856
rtoes 7.90627
lfemur -51.7199 3.17952 -18.8922
ltibia 40.9135
lfoot -32.5822 -4.34875
ltoes 0.711178
739
root 13.9335 29.612 50.2991 -170.306 -4.03767 -176.029
lowerback 40.4877 0.76014 2.88145
upperback 3.65836 0.738747 1.14663
thorax -15.6303 -0.518988 -0.400254
lowerneck 13.8336 -2.38129 -10.0423
upperneck -21.8596 -3.97307 10.3946
head -8.63774 -2.49561 5.75654
rclavicle 1.37907e-014 -6.60959e-015
rhumerus 93.9514 0.845011 -83.7865
rradius 85.0486
rwrist 19.2615
rhand -4.21574 -18.3801
rfingers 7.12502
rthumb 21.5468 -47.2015
lclavicle 1.37907e-014 -6.60959e-015
lhumerus 93.1594 3.51612 79.9757
lradius 78.1567
lwrist -23.6288
lhand 9.92756 -1.73851
lfingers 7.12502
lthumb 35.0576 24.8041
rfemur -54.5345 -4.52068 30.5701
rtibia 45.0335
rfoot -35.2511 -15.7014
rtoes 7.78176
lfemur -52.2232 3.33724 -18.5853
ltibia 40.9713
lfoot -32.6891 -3.80427
ltoes 0.443028
